<svg xmlns="http://www.w3.org/2000/svg" width="40" height="40" viewBox="0 0 40 40" fill="none">
  <path d="M3.3335 36.6667L26.6668 13.3333M26.6668 13.3333H30.0002C31.7683 13.3333 33.464 12.631 34.7142 11.3807C35.9644 10.1305 36.6668 8.43478 36.6668 6.66667V3.33333H33.3335C31.5654 3.33333 29.8697 4.03571 28.6195 5.28595C27.3692 6.5362 26.6668 8.23189 26.6668 10V13.3333ZM5.7835 20.8833L8.3335 18.3333L10.8835 20.8833C11.9725 21.9766 12.5839 23.4569 12.5839 25C12.5839 26.5431 11.9725 28.0234 10.8835 29.1167L8.3335 31.6667L5.7835 29.1167C4.69449 28.0234 4.08306 26.5431 4.08306 25C4.08306 23.4569 4.69449 21.9766 5.7835 20.8833ZM12.4502 14.2167L15.0002 11.6667L17.5502 14.2167C18.6392 15.31 19.2506 16.7902 19.2506 18.3333C19.2506 19.8765 18.6392 21.3567 17.5502 22.45L15.0002 25L12.4502 22.45C11.3612 21.3567 10.7497 19.8765 10.7497 18.3333C10.7497 16.7902 11.3612 15.31 12.4502 14.2167ZM19.1168 7.55L21.6668 5L24.2168 7.55C25.3058 8.64329 25.9173 10.1235 25.9173 11.6667C25.9173 13.2098 25.3058 14.69 24.2168 15.7833L21.6668 18.3333L19.1168 15.7833C18.0278 14.69 17.4164 13.2098 17.4164 11.6667C17.4164 10.1235 18.0278 8.64329 19.1168 7.55Z" stroke="black" stroke-width="2" stroke-linecap="round" stroke-linejoin="round"/>
  <path d="M19.1168 29.1167L21.6668 31.6667L19.1168 34.2167C18.0235 35.3057 16.5433 35.9171 15.0002 35.9171C13.457 35.9171 11.9768 35.3057 10.8835 34.2167L8.3335 31.6667L10.8835 29.1167C11.9768 28.0277 13.457 27.4162 15.0002 27.4162C16.5433 27.4162 18.0235 28.0277 19.1168 29.1167ZM25.7835 22.45L28.3335 25L25.7835 27.55C24.6902 28.639 23.2099 29.2504 21.6668 29.2504C20.1237 29.2504 18.6435 28.639 17.5502 27.55L15.0002 25L17.5502 22.45C18.6435 21.361 20.1237 20.7496 21.6668 20.7496C23.2099 20.7496 24.6902 21.361 25.7835 22.45ZM32.4502 15.7833L35.0002 18.3333L32.4502 20.8833C31.3569 21.9723 29.8766 22.5838 28.3335 22.5838C26.7904 22.5838 25.3101 21.9723 24.2168 20.8833L21.6668 18.3333L24.2168 15.7833C25.3101 14.6943 26.7904 14.0829 28.3335 14.0829C29.8766 14.0829 31.3569 14.6943 32.4502 15.7833Z" stroke="black" stroke-width="2" stroke-linecap="round" stroke-linejoin="round"/>
</svg>