<svg xmlns="http://www.w3.org/2000/svg" width="16" height="16" viewBox="0 0 16 16" fill="none">
  <path d="M8 0.000671387C9.06087 0.000671387 10.0783 0.422099 10.8284 1.17224C11.5786 1.92239 12 2.93981 12 4.00067C12 5.06154 11.5786 6.07895 10.8284 6.8291C10.0783 7.57924 9.06087 8.00067 8 8.00067C6.93913 8.00067 5.92172 7.57924 5.17157 6.8291C4.42143 6.07895 4 5.06154 4 4.00067C4 2.93981 4.42143 1.92239 5.17157 1.17224C5.92172 0.422099 6.93913 0.000671387 8 0.000671387ZM8 10.0007C12.42 10.0007 16 11.7907 16 14.0007V16.0007H0V14.0007C0 11.7907 3.58 10.0007 8 10.0007Z" fill="black"/>
</svg>